<svg xmlns="http://www.w3.org/2000/svg" xmlns:xlink="http://www.w3.org/1999/xlink" viewBox="0 0 24 24"><defs><style>.cls-1{fill:#fff;}.cls-2{fill:url(#linear-gradient);}</style><linearGradient id="linear-gradient" x1="2.7" y1="19.36" x2="20.44" y2="4.72" gradientUnits="userSpaceOnUse"><stop offset="0" stop-color="#6c6b68"/><stop offset="0.06" stop-color="#83827f"/><stop offset="0.21" stop-color="#b8b7b6"/><stop offset="0.34" stop-color="#dfdede"/><stop offset="0.44" stop-color="#f6f6f6"/><stop offset="0.5" stop-color="#fff"/><stop offset="0.56" stop-color="#f6f6f6"/><stop offset="0.66" stop-color="#dfdede"/><stop offset="0.79" stop-color="#b8b7b6"/><stop offset="0.94" stop-color="#83827f"/><stop offset="1" stop-color="#6c6b68"/></linearGradient></defs><title>Artboard 1 copy</title><g id="Layer_5" data-name="Layer 5"><path class="cls-1" d="M18.23,7.92a.87.87,0,0,0-.83-.57H6.81L4.87,2.77l10.62,0a1,1,0,0,1,.82.58Z"/><path class="cls-1" d="M5,16.08a.89.89,0,0,0,.84.57h10.8l1.95,4.59-10.84,0a1,1,0,0,1-.83-.58Z"/><path class="cls-2" d="M6.93,20.66,5,15.92a1.41,1.41,0,0,1,.32-1.38L16.08,4.83a1.34,1.34,0,0,0,.24-1.5l2,4.79A1.35,1.35,0,0,1,18,9.45c-.58.49-10.81,9.71-10.81,9.71A1.28,1.28,0,0,0,6.93,20.66Z"/></g></svg>